<?xml version="1.0" encoding="UTF-8"?>
<svg width="48px" height="48px" viewBox="0 0 48 48" version="1.1" xmlns="http://www.w3.org/2000/svg" xmlns:xlink="http://www.w3.org/1999/xlink">
    <!-- Generator: Sketch 53.2 (72643) - https://sketchapp.com -->
    <title>AppIconSVG</title>
    <desc>Created with Sketch.</desc>
    <defs>
        <linearGradient x1="21.5899113%" y1="54.8179862%" x2="80.4311614%" y2="51.0216584%" id="linearGradient-1">
            <stop stop-color="#000000" stop-opacity="0.216291521" offset="0%"></stop>
            <stop stop-color="#000000" stop-opacity="0" offset="100%"></stop>
        </linearGradient>
        <path d="M31.6363636,22.9090909 C31.6363636,18.6872727 28.2218182,15.2727273 24,15.2727273 C19.7781818,15.2727273 16.3636364,18.6872727 16.3636364,22.9090909 C16.3636364,26.6945455 19.1127273,29.8254545 22.7236364,30.4254545 L22.7236364,34.7236364 L24.9054545,34.7236364 L24.9054545,30.4909091 C28.6909091,30.0436364 31.6363636,26.8254545 31.6363636,22.9090909 Z" id="path-2"></path>
        <filter x="-9.8%" y="-7.7%" width="119.6%" height="115.4%" filterUnits="objectBoundingBox" id="filter-3">
            <feOffset dx="0" dy="0" in="SourceAlpha" result="shadowOffsetOuter1"></feOffset>
            <feGaussianBlur stdDeviation="0.5" in="shadowOffsetOuter1" result="shadowBlurOuter1"></feGaussianBlur>
            <feColorMatrix values="0 0 0 0 0   0 0 0 0 0   0 0 0 0 0  0 0 0 0.2 0" type="matrix" in="shadowBlurOuter1"></feColorMatrix>
        </filter>
        <linearGradient x1="50%" y1="50%" x2="50%" y2="15.2112055%" id="linearGradient-4">
            <stop stop-color="#000000" stop-opacity="0.11291327" offset="0%"></stop>
            <stop stop-color="#000000" stop-opacity="0.0472995924" offset="100%"></stop>
        </linearGradient>
    </defs>
    <g id="AppIconSVG" stroke="none" stroke-width="1" fill="none" fill-rule="evenodd">
        <circle id="Mask" fill="#008FEE" cx="24" cy="24" r="24"></circle>
        <polygon id="Rectangle" fill="url(#linearGradient-1)" opacity="0.300000012" transform="translate(33.899913, 33.773837) rotate(-315.000000) translate(-33.899913, -33.773837) " points="19.1395531 25.4552335 47.5031894 25.4552335 48.6602733 41.8850446 26.7352065 42.092441"></polygon>
        <g id="Shape-Copy" fill-rule="nonzero">
            <use fill="black" fill-opacity="1" filter="url(#filter-3)" xlink:href="#path-2"></use>
            <use fill="#FFFFFF" xlink:href="#path-2"></use>
        </g>
        <path d="M31.6363636,22.9090909 C31.6363636,18.6872727 28.2218182,15.2727273 24,15.2727273 C19.7781818,15.2727273 16.3636364,18.6872727 16.3636364,22.9090909 C16.3636364,26.6945455 19.1127273,29.8254545 22.7236364,30.4254545 L22.7236364,34.7236364 L24.9054545,34.7236364 L24.9054545,30.4909091 C28.6909091,30.0436364 31.6363636,26.8254545 31.6363636,22.9090909 Z" id="Shape-Copy" fill="url(#linearGradient-4)" fill-rule="nonzero"></path>
    </g>
</svg>